<svg width="18" height="47" viewBox="0 0 18 47" fill="none" xmlns="http://www.w3.org/2000/svg">
<path d="M17.76 40.769C17.76 42.645 17.1793 44.1637 16.018 45.325C14.8567 46.4417 13.338 47 11.462 47H6.638C4.762 47 3.24333 46.4417 2.082 45.325C0.920667 44.1637 0.34 42.645 0.34 40.769V6.331C0.34 4.455 0.920667 2.95866 2.082 1.842C3.24333 0.680664 4.762 0.0999968 6.638 0.0999968H11.462C13.338 0.0999968 14.8567 0.680664 16.018 1.842C17.1793 2.95866 17.76 4.455 17.76 6.331V17.051H11.395V6.666C11.395 6.44266 11.2833 6.331 11.06 6.331H7.04C6.81667 6.331 6.705 6.44266 6.705 6.666V40.434C6.705 40.6573 6.81667 40.769 7.04 40.769H11.06C11.2833 40.769 11.395 40.6573 11.395 40.434V26.565H8.782L9.318 20.334H17.76V40.769Z" fill="white"/>
</svg>
