<svg width="120" height="121" viewBox="0 0 120 121" fill="none" xmlns="http://www.w3.org/2000/svg">
<path d="M76.4971 7.68023C76.5689 7.34187 76.5109 7.04124 76.3232 6.77834C76.1356 6.51543 75.8314 6.31412 75.4108 6.1744C75.1251 6.07946 74.8709 6.03991 74.6482 6.05575C74.4265 6.06889 74.2407 6.12838 74.0908 6.23424C73.9436 6.341 73.8416 6.48372 73.7848 6.66242C73.7321 6.80954 73.7218 6.94979 73.7539 7.08319C73.7887 7.21749 73.8539 7.3454 73.9494 7.46693C74.0458 7.58575 74.164 7.70136 74.3042 7.81377C74.4452 7.92347 74.5995 8.02863 74.7673 8.12925L75.4546 8.55514C75.79 8.75639 76.0872 8.97485 76.3462 9.21054C76.6051 9.44622 76.8137 9.69961 76.972 9.9707C77.1302 10.2418 77.2274 10.5315 77.2636 10.8399C77.3024 11.1491 77.2681 11.4774 77.1607 11.8249C76.9962 12.333 76.7266 12.7313 76.3517 13.0199C75.9804 13.3066 75.5221 13.4732 74.9768 13.5195C74.4351 13.564 73.8272 13.4743 73.1532 13.2504C72.4846 13.0283 71.9349 12.732 71.5043 12.3614C71.0763 11.9917 70.7876 11.559 70.6381 11.0634C70.4921 10.5659 70.5075 10.0157 70.6842 9.41292L72.3786 9.97583C72.3089 10.261 72.3144 10.5202 72.3952 10.7536C72.4796 10.9852 72.6254 11.1878 72.8325 11.3614C73.0432 11.5331 73.2995 11.6692 73.6015 11.7695C73.898 11.868 74.1693 11.9102 74.4152 11.8961C74.6638 11.8829 74.8733 11.8193 75.0437 11.7053C75.214 11.5913 75.331 11.4341 75.3947 11.2337C75.4541 11.0469 75.4487 10.8715 75.3786 10.7075C75.3112 10.5445 75.1866 10.3833 75.0047 10.2241C74.8255 10.0658 74.5965 9.89995 74.3178 9.72653L73.4882 9.19951C72.8442 8.79697 72.3776 8.34712 72.0885 7.84997C71.7994 7.35282 71.7538 6.79739 71.9518 6.18369C72.1092 5.6792 72.3824 5.28357 72.7716 4.9968C73.1635 4.71092 73.6303 4.5412 74.1719 4.48765C74.7135 4.4341 75.2863 4.50764 75.8902 4.70826C76.5049 4.91247 77.0078 5.1963 77.399 5.55974C77.7929 5.92408 78.0582 6.33697 78.1947 6.79839C78.3312 7.25982 78.3248 7.73961 78.1754 8.23777L76.4971 7.68023Z" fill="white"/>
<path d="M86.7347 12.833L85.0794 11.9707C85.1568 11.7388 85.1908 11.5147 85.1812 11.2983C85.1729 11.0794 85.1254 10.8721 85.0388 10.6764C84.9523 10.4808 84.8291 10.3013 84.6693 10.138C84.512 9.976 84.3225 9.83725 84.1008 9.72174C83.7002 9.51304 83.3012 9.43169 82.9038 9.47768C82.5076 9.52112 82.1326 9.69089 81.7788 9.98697C81.4262 10.2805 81.115 10.6981 80.8451 11.2397C80.5676 11.7965 80.4163 12.307 80.3913 12.7712C80.3688 13.2367 80.458 13.6435 80.659 13.9916C80.86 14.3397 81.1558 14.6155 81.5463 14.819C81.7655 14.9332 81.9829 15.0096 82.1985 15.0482C82.4166 15.0882 82.6266 15.0903 82.8285 15.0545C83.0316 15.0163 83.2216 14.9407 83.3985 14.8278C83.5778 14.7163 83.7383 14.5661 83.88 14.3773L85.5316 15.2473C85.3101 15.5835 85.0307 15.8735 84.6933 16.1173C84.3598 16.3599 83.9842 16.5374 83.5664 16.6496C83.1525 16.7607 82.7097 16.7894 82.2381 16.7359C81.7703 16.6812 81.2882 16.5245 80.7919 16.266C80.1015 15.9063 79.5628 15.4271 79.1757 14.8283C78.7912 14.2308 78.5903 13.5512 78.5731 12.7896C78.5585 12.0294 78.7628 11.2246 79.186 10.3753C79.6105 9.52355 80.1303 8.88158 80.7456 8.44944C81.3608 8.01729 82.0185 7.7866 82.7185 7.75737C83.4199 7.72559 84.1107 7.8869 84.7909 8.24129C85.2394 8.47493 85.6234 8.75506 85.9431 9.08171C86.2652 9.40966 86.5141 9.77313 86.6897 10.1721C86.8667 10.5685 86.9609 10.9908 86.9725 11.4388C86.9866 11.8881 86.9073 12.3529 86.7347 12.833Z" fill="white"/>
<path d="M84.1898 17.7268L89.245 10.6128L92.0091 12.666C92.5381 13.059 92.9214 13.4906 93.1588 13.9606C93.4002 14.43 93.4947 14.9124 93.4423 15.4078C93.3939 15.9025 93.2026 16.385 92.8686 16.8551C92.5329 17.3275 92.1437 17.6594 91.7012 17.8507C91.2602 18.0397 90.7851 18.0831 90.2759 17.9808C89.769 17.8802 89.2464 17.63 88.7082 17.2302L86.8576 15.8555L87.7166 14.6466L89.3278 15.8435C89.6106 16.0536 89.8734 16.1887 90.1164 16.2489C90.3593 16.3091 90.5824 16.2943 90.7855 16.2046C90.9909 16.1166 91.1767 15.9556 91.3429 15.7217C91.5108 15.4855 91.6055 15.2516 91.6272 15.0201C91.6512 14.7902 91.5981 14.5633 91.4681 14.3393C91.342 14.1147 91.1364 13.8965 90.8513 13.6848L89.8525 12.9428L85.671 18.8271L84.1898 17.7268ZM90.2737 17.2999L89.7144 21.8307L88.0793 20.6161L88.6762 16.1132L90.2737 17.2999Z" fill="white"/>
<path d="M99.0551 24.7629C98.3897 25.4433 97.6974 25.8932 96.9783 26.1125C96.2612 26.3339 95.563 26.3491 94.8837 26.1582C94.2083 25.9673 93.6014 25.5966 93.0631 25.0462C92.5208 24.4918 92.1573 23.8683 91.9726 23.1757C91.7878 22.4831 91.8037 21.7702 92.0202 21.0371C92.2368 20.3039 92.6767 19.5981 93.3402 18.9198C94.0057 18.2394 94.6969 17.7885 95.414 17.5671C96.1311 17.3457 96.8274 17.3305 97.5027 17.5214C98.1801 17.7103 98.7899 18.082 99.3322 18.6364C99.8706 19.1868 100.232 19.8083 100.417 20.5009C100.606 21.1934 100.592 21.9063 100.375 22.6395C100.161 23.3747 99.7206 24.0825 99.0551 24.7629ZM97.7471 23.4255C98.1781 22.9848 98.4771 22.5471 98.6439 22.1125C98.8128 21.6799 98.8575 21.2666 98.778 20.8726C98.6986 20.4785 98.5029 20.1221 98.191 19.8032C97.8792 19.4844 97.5306 19.2843 97.1452 19.2031C96.7598 19.1218 96.3546 19.1665 95.9295 19.3371C95.5064 19.5098 95.0793 19.8164 94.6483 20.2572C94.2172 20.6979 93.9173 21.1346 93.7484 21.5672C93.5816 22.0018 93.5379 22.4161 93.6173 22.8101C93.6968 23.2041 93.8924 23.5606 94.2043 23.8794C94.5162 24.1983 94.8648 24.3983 95.2501 24.4796C95.6355 24.5608 96.0398 24.5151 96.4629 24.3425C96.888 24.1719 97.316 23.8662 97.7471 23.4255Z" fill="white"/>
<path d="M95.8457 27.5046L102.852 22.3004L103.92 23.8045L98.1358 28.1015L100.303 31.1514L99.0818 32.0586L95.8457 27.5046Z" fill="white"/>
<path d="M100.409 33.6586L108.149 29.6264L108.972 31.2779L102.581 34.6072L104.25 37.9559L102.901 38.6587L100.409 33.6586Z" fill="white"/>
<path d="M113.538 46.2609L115.04 46.0177L116.137 53.1008L114.636 53.344L114.226 50.7036L107.113 51.8556L106.834 50.0532L113.947 48.9013L113.538 46.2609Z" fill="white"/>
<path d="M112.203 63.3507C111.252 63.3507 110.442 63.1703 109.774 62.8095C109.107 62.4515 108.597 61.9629 108.244 61.3436C107.895 60.7271 107.72 60.0339 107.72 59.264C107.72 58.4885 107.896 57.7924 108.249 57.176C108.601 56.5595 109.111 56.0723 109.779 55.7143C110.446 55.3564 111.254 55.1774 112.203 55.1774C113.155 55.1774 113.965 55.3564 114.632 55.7143C115.3 56.0723 115.808 56.5595 116.158 57.176C116.51 57.7924 116.686 58.4885 116.686 59.264C116.686 60.0339 116.51 60.7271 116.158 61.3436C115.808 61.9629 115.3 62.4515 114.632 62.8095C113.965 63.1703 113.155 63.3507 112.203 63.3507ZM112.203 61.4799C112.82 61.4799 113.34 61.3876 113.763 61.2029C114.186 61.0211 114.507 60.764 114.726 60.4316C114.945 60.0993 115.054 59.71 115.054 59.264C115.054 58.818 114.945 58.4288 114.726 58.0964C114.507 57.764 114.186 57.5055 113.763 57.3208C113.34 57.139 112.82 57.0481 112.203 57.0481C111.587 57.0481 111.067 57.139 110.644 57.3208C110.22 57.5055 109.899 57.764 109.681 58.0964C109.462 58.4288 109.352 58.818 109.352 59.264C109.352 59.71 109.462 60.0993 109.681 60.4316C109.899 60.764 110.22 61.0211 110.644 61.2029C111.067 61.3876 111.587 61.4799 112.203 61.4799Z" fill="white"/>
<path d="M107.066 70.7053L115.348 73.4567L113.567 79.0612L112.123 78.5816L113.345 74.7356L111.372 74.08L110.241 77.6376L108.798 77.158L109.928 73.6004L107.951 72.9434L106.723 76.8057L105.28 76.326L107.066 70.7053Z" fill="white"/>
<path d="M111.909 83.7029L108.486 83.9038L108.456 83.9649L110.305 86.9219L109.376 88.787L106.694 84.3871L101.609 84.8082L102.556 82.9088L105.996 82.6831L106.026 82.6221L104.183 79.644L105.125 77.7523L107.777 82.2131L112.843 81.8302L111.909 83.7029Z" fill="white"/>
<path d="M101.711 85.1168L108.717 90.3211L106.722 93.1278C106.339 93.6673 105.911 94.0516 105.438 94.2807C104.967 94.5114 104.482 94.5933 103.983 94.5265C103.484 94.4637 103.002 94.2595 102.536 93.9139C102.071 93.5683 101.733 93.1615 101.522 92.6934C101.311 92.2253 101.244 91.7243 101.32 91.1901C101.395 90.6583 101.627 90.1192 102.015 89.5726L103.286 87.7837L104.473 88.6655L103.375 90.2113C103.169 90.5007 103.049 90.7757 103.013 91.0361C102.979 91.3005 103.016 91.5443 103.126 91.7674C103.237 91.9945 103.407 92.1935 103.637 92.3646C103.87 92.5374 104.107 92.6407 104.347 92.6745C104.589 92.7124 104.825 92.6719 105.056 92.5532C105.289 92.4361 105.509 92.2317 105.716 91.9399L106.437 90.9256L100.642 86.6209L101.711 85.1168Z" fill="white"/>
<path d="M97.4484 91.5158L103.551 97.755L102.26 99.0741L97.2219 93.9225L94.6058 96.5973L93.5421 95.5097L97.4484 91.5158Z" fill="white"/>
<path d="M88.3437 105.497C87.7924 104.721 87.4682 103.954 87.3711 103.195C87.2718 102.437 87.3686 101.73 87.6617 101.073C87.9542 100.421 88.4094 99.8651 89.0275 99.406C89.6501 98.9436 90.3108 98.6721 91.0097 98.5916C91.7087 98.5112 92.3952 98.6363 93.0692 98.9671C93.7433 99.2978 94.3551 99.8499 94.9048 100.623C95.456 101.399 95.7813 102.166 95.8807 102.924C95.9801 103.681 95.8835 104.386 95.5911 105.039C95.3002 105.694 94.8435 106.252 94.2209 106.715C93.6029 107.174 92.9444 107.444 92.2455 107.524C91.5459 107.608 90.8591 107.485 90.1851 107.155C89.5087 106.825 88.8949 106.273 88.3437 105.497ZM89.8454 104.382C90.2025 104.884 90.5777 105.253 90.9712 105.488C91.3623 105.725 91.7546 105.833 92.1482 105.813C92.5417 105.793 92.9175 105.65 93.2755 105.384C93.6336 105.118 93.8827 104.797 94.0228 104.42C94.1629 104.044 94.1845 103.628 94.0875 103.173C93.9883 102.719 93.7601 102.241 93.403 101.739C93.0459 101.236 92.6718 100.867 92.2807 100.63C91.8872 100.395 91.4938 100.288 91.1002 100.308C90.7067 100.328 90.3309 100.47 89.9729 100.736C89.6148 101.002 89.3657 101.324 89.2256 101.7C89.0855 102.077 89.0651 102.492 89.1643 102.945C89.2613 103.4 89.4883 103.879 89.8454 104.382Z" fill="white"/>
<path d="M86.253 101.899L90.1456 109.71L87.0919 111.3C86.5074 111.605 85.956 111.759 85.4376 111.764C84.918 111.772 84.4541 111.64 84.0461 111.369C83.6369 111.102 83.3036 110.71 83.0464 110.194C82.7879 109.675 82.6764 109.171 82.7118 108.682C82.7485 108.195 82.9279 107.743 83.2498 107.326C83.5692 106.909 84.0262 106.546 84.6208 106.237L86.6654 105.172L87.3268 106.499L85.5468 107.426C85.2344 107.589 84.9964 107.767 84.8329 107.961C84.6694 108.156 84.5803 108.365 84.5657 108.591C84.5485 108.817 84.604 109.059 84.7319 109.316C84.8612 109.575 85.0218 109.767 85.2138 109.891C85.4033 110.017 85.6254 110.071 85.8801 110.053C86.1336 110.04 86.4178 109.951 86.7328 109.787L87.8363 109.212L84.6166 102.751L86.253 101.899ZM83.8445 107.631L80.1495 105.078L81.9559 104.137L85.6095 106.711L83.8445 107.631Z" fill="white"/>
<path d="M79.5931 105.615L82.2363 113.933L76.6555 115.787L76.1948 114.337L80.0245 113.065L79.3947 111.083L75.8521 112.26L75.3913 110.81L78.9339 109.633L78.3028 107.647L74.4569 108.925L73.9962 107.475L79.5931 105.615Z" fill="white"/>
<path d="M43.5031 113.195C43.4313 113.533 43.4893 113.834 43.677 114.097C43.8647 114.36 44.1688 114.561 44.5894 114.701C44.8752 114.796 45.1294 114.835 45.352 114.819C45.5738 114.806 45.7596 114.747 45.9095 114.641C46.0567 114.534 46.1587 114.391 46.2154 114.213C46.2682 114.066 46.2785 113.925 46.2463 113.792C46.2115 113.658 46.1463 113.53 46.0508 113.408C45.9545 113.289 45.8362 113.174 45.6961 113.061C45.5551 112.952 45.4007 112.846 45.233 112.746L44.5457 112.32C44.2102 112.119 43.913 111.9 43.6541 111.665C43.3952 111.429 43.1866 111.175 43.0283 110.904C42.87 110.633 42.7728 110.344 42.7367 110.035C42.6978 109.726 42.7321 109.398 42.8396 109.05C43.004 108.542 43.2737 108.144 43.6485 107.855C44.0199 107.568 44.4781 107.402 45.0234 107.356C45.5652 107.311 46.173 107.401 46.847 107.625C47.5156 107.847 48.0653 108.143 48.496 108.514C48.924 108.883 49.2127 109.316 49.3622 109.812C49.5081 110.309 49.4927 110.859 49.3161 111.462L47.6216 110.899C47.6914 110.614 47.6858 110.355 47.605 110.121C47.5206 109.89 47.3749 109.687 47.1677 109.514C46.957 109.342 46.7007 109.206 46.3988 109.106C46.1022 109.007 45.831 108.965 45.585 108.979C45.3364 108.992 45.127 109.056 44.9566 109.17C44.7862 109.284 44.6692 109.441 44.6055 109.641C44.5462 109.828 44.5515 110.004 44.6216 110.168C44.689 110.331 44.8137 110.492 44.9956 110.651C45.1748 110.809 45.4037 110.975 45.6825 111.149L46.512 111.676C47.1561 112.078 47.6227 112.528 47.9118 113.025C48.2009 113.522 48.2464 114.078 48.0484 114.691C47.8911 115.196 47.6178 115.591 47.2286 115.878C46.8367 116.164 46.37 116.334 45.8284 116.387C45.2867 116.441 44.714 116.367 44.1101 116.167C43.4954 115.963 42.9924 115.679 42.6012 115.315C42.2073 114.951 41.9421 114.538 41.8056 114.077C41.669 113.615 41.6755 113.135 41.8248 112.637L43.5031 113.195Z" fill="white"/>
<path d="M33.2656 108.042L34.9209 108.904C34.8434 109.136 34.8095 109.36 34.8191 109.577C34.8274 109.796 34.8748 110.003 34.9614 110.199C35.048 110.394 35.1712 110.574 35.331 110.737C35.4883 110.899 35.6778 111.038 35.8995 111.153C36.3001 111.362 36.6991 111.443 37.0965 111.397C37.4926 111.354 37.8676 111.184 38.2215 110.888C38.574 110.595 38.8853 110.177 39.1552 109.635C39.4327 109.079 39.5839 108.568 39.609 108.104C39.6315 107.638 39.5422 107.232 39.3412 106.883C39.1402 106.535 38.8445 106.26 38.4539 106.056C38.2347 105.942 38.0173 105.865 37.8018 105.827C37.5836 105.787 37.3737 105.785 37.1718 105.821C36.9686 105.859 36.7786 105.934 36.6018 106.047C36.4224 106.159 36.2619 106.309 36.1202 106.498L34.4687 105.628C34.6902 105.292 34.9696 105.002 35.3069 104.758C35.6404 104.515 36.0161 104.338 36.4338 104.225C36.8478 104.114 37.2905 104.086 37.7621 104.139C38.2299 104.194 38.712 104.351 39.2084 104.609C39.8987 104.969 40.4374 105.448 40.8245 106.047C41.2091 106.644 41.41 107.324 41.4271 108.085C41.4418 108.846 41.2375 109.65 40.8143 110.5C40.3898 111.352 39.8699 111.993 39.2547 112.426C38.6394 112.858 37.9818 113.088 37.2817 113.118C36.5804 113.149 35.8896 112.988 35.2093 112.634C34.7608 112.4 34.3768 112.12 34.0572 111.793C33.7351 111.465 33.4862 111.102 33.3105 110.703C33.1336 110.307 33.0393 109.884 33.0277 109.436C33.0136 108.987 33.0929 108.522 33.2656 108.042Z" fill="white"/>
<path d="M35.8104 103.148L30.7552 110.262L27.9912 108.209C27.4621 107.816 27.0788 107.385 26.8414 106.914C26.6001 106.445 26.5056 105.963 26.5579 105.467C26.6064 104.973 26.7976 104.49 27.1317 104.02C27.4674 103.548 27.8565 103.216 28.2991 103.024C28.74 102.835 29.2151 102.792 29.7243 102.894C30.2312 102.995 30.7538 103.245 31.292 103.645L33.1427 105.02L32.2837 106.228L30.6725 105.032C30.3897 104.821 30.1268 104.686 29.8839 104.626C29.6409 104.566 29.4179 104.581 29.2147 104.67C29.0093 104.759 28.8235 104.919 28.6573 105.153C28.4895 105.39 28.3947 105.623 28.373 105.855C28.3491 106.085 28.4021 106.312 28.5321 106.536C28.6583 106.76 28.8639 106.979 29.1489 107.19L30.1478 107.932L34.3292 102.048L35.8104 103.148ZM29.7265 103.575L30.2858 99.0443L31.921 100.259L31.324 104.762L29.7265 103.575Z" fill="white"/>
<path d="M20.9451 96.1122C21.6105 95.4318 22.3028 94.9819 23.0219 94.7626C23.739 94.5412 24.4372 94.5259 25.1166 94.7169C25.7919 94.9078 26.3988 95.2784 26.9371 95.8288C27.4794 96.3833 27.8429 97.0068 28.0277 97.6994C28.2124 98.3919 28.1965 99.1048 27.98 99.838C27.7635 100.571 27.3235 101.277 26.66 101.955C25.9946 102.636 25.3033 103.087 24.5862 103.308C23.8691 103.529 23.1728 103.545 22.4975 103.354C21.8201 103.165 21.2103 102.793 20.668 102.239C20.1297 101.688 19.7681 101.067 19.5834 100.374C19.3947 99.6816 19.4086 98.9687 19.6251 98.2355C19.8396 97.5003 20.2796 96.7925 20.9451 96.1122ZM22.2531 97.4496C21.8221 97.8903 21.5231 98.328 21.3563 98.7626C21.1874 99.1952 21.1427 99.6085 21.2222 100.003C21.3016 100.397 21.4973 100.753 21.8092 101.072C22.121 101.391 22.4697 101.591 22.855 101.672C23.2404 101.753 23.6456 101.709 24.0707 101.538C24.4938 101.365 24.9209 101.059 25.3519 100.618C25.783 100.177 26.083 99.7405 26.2518 99.3079C26.4187 98.8733 26.4624 98.459 26.3829 98.0649C26.3034 97.6709 26.1078 97.3145 25.7959 96.9956C25.484 96.6768 25.1354 96.4767 24.7501 96.3955C24.3647 96.3142 23.9605 96.3599 23.5374 96.5326C23.1123 96.7032 22.6842 97.0088 22.2531 97.4496Z" fill="white"/>
<path d="M24.1545 93.3705L17.1487 98.5747L16.0799 97.0706L21.8645 92.7736L19.6972 89.7237L20.9185 88.8165L24.1545 93.3705Z" fill="white"/>
<path d="M19.5913 87.2165L11.8513 91.2487L11.0283 89.5972L17.4191 86.2679L15.7503 82.9192L17.0995 82.2163L19.5913 87.2165Z" fill="white"/>
<path d="M6.46195 74.6141L4.96021 74.8573L3.86297 67.7742L5.36471 67.531L5.77373 70.1714L12.887 69.0195L13.1662 70.8218L6.05293 71.9737L6.46195 74.6141Z" fill="white"/>
<path d="M7.79704 57.5244C8.74874 57.5244 9.5584 57.7048 10.226 58.0656C10.8936 58.4236 11.4036 58.9122 11.7558 59.5315C12.1053 60.148 12.28 60.8412 12.28 61.6111C12.28 62.3866 12.1039 63.0827 11.7516 63.6991C11.3993 64.3156 10.8894 64.8028 10.2218 65.1608C9.55414 65.5187 8.7459 65.6977 7.79704 65.6977C6.84533 65.6977 6.03568 65.5187 5.36806 65.1608C4.70045 64.8028 4.19192 64.3156 3.84249 63.6991C3.49022 63.0827 3.31408 62.3866 3.31408 61.6111C3.31408 60.8412 3.49022 60.148 3.84249 59.5315C4.19192 58.9122 4.70045 58.4236 5.36806 58.0656C6.03568 57.7048 6.84533 57.5244 7.79704 57.5244ZM7.79704 59.3952C7.18056 59.3952 6.66067 59.4875 6.23738 59.6721C5.81408 59.854 5.49306 60.1111 5.27431 60.4435C5.05556 60.7758 4.94619 61.165 4.94619 61.6111C4.94619 62.0571 5.05556 62.4463 5.27431 62.7787C5.49306 63.1111 5.81408 63.3696 6.23738 63.5542C6.66067 63.7361 7.18056 63.827 7.79704 63.827C8.41352 63.827 8.9334 63.7361 9.3567 63.5542C9.77999 63.3696 10.101 63.1111 10.3198 62.7787C10.5385 62.4463 10.6479 62.0571 10.6479 61.6111C10.6479 61.165 10.5385 60.7758 10.3198 60.4435C10.101 60.1111 9.77999 59.854 9.3567 59.6721C8.9334 59.4875 8.41352 59.3952 7.79704 59.3952Z" fill="white"/>
<path d="M12.9345 50.1698L4.65227 47.4183L6.43331 41.8138L7.87704 42.2935L6.65483 46.1394L8.62832 46.795L9.7589 43.2374L11.2026 43.717L10.072 47.2747L12.0496 47.9316L13.277 44.0694L14.7207 44.549L12.9345 50.1698Z" fill="white"/>
<path d="M8.09091 37.1721L11.5138 36.9712L11.5442 36.9102L9.69509 33.9531L10.6245 32.0881L13.3066 36.4879L18.3911 36.0669L17.4445 37.9662L14.0045 38.1919L13.9741 38.2529L15.8176 41.231L14.8748 43.1228L12.2232 38.6619L7.15767 39.0448L8.09091 37.1721Z" fill="white"/>
<path d="M18.2895 35.7583L11.2837 30.554L13.2781 27.7473C13.6615 27.2077 14.0897 26.8234 14.5625 26.5944C15.0331 26.3637 15.5181 26.2818 16.0177 26.3486C16.5166 26.4114 16.9987 26.6156 17.4639 26.9612C17.9292 27.3068 18.2672 27.7136 18.4782 28.1817C18.6892 28.6497 18.7564 29.1508 18.68 29.685C18.6053 30.2168 18.3737 30.7559 17.9853 31.3024L16.7141 33.0914L15.5271 32.2096L16.6255 30.6638C16.8312 30.3744 16.9517 30.0994 16.9869 29.839C17.0215 29.5746 16.9839 29.3308 16.8742 29.1077C16.7637 28.8806 16.5934 28.6815 16.363 28.5104C16.1304 28.3376 15.8937 28.2343 15.6529 28.2005C15.4115 28.1627 15.1754 28.2032 14.9447 28.3219C14.7117 28.439 14.4915 28.6434 14.2842 28.9352L13.5634 29.9495L19.3583 34.2542L18.2895 35.7583Z" fill="white"/>
<path d="M22.5519 29.3593L16.4496 23.1201L17.7398 21.8009L22.7783 26.9525L25.3944 24.2777L26.4582 25.3653L22.5519 29.3593Z" fill="white"/>
<path d="M31.6566 15.3778C32.2078 16.1536 32.532 16.9212 32.6291 17.6806C32.7285 18.4382 32.6316 19.1453 32.3385 19.8017C32.046 20.4542 31.5908 21.01 30.9727 21.4691C30.3502 21.9316 29.6894 22.203 28.9905 22.2835C28.2915 22.3639 27.605 22.2388 26.931 21.9081C26.2569 21.5773 25.6451 21.0252 25.0955 20.2517C24.5442 19.4759 24.2189 18.7092 24.1195 17.9515C24.0201 17.1939 24.1167 16.4888 24.4092 15.8364C24.7 15.1816 25.1567 14.623 25.7793 14.1605C26.3973 13.7014 27.0558 13.4316 27.7547 13.3512C28.4543 13.2667 29.1411 13.3898 29.8151 13.7206C30.4915 14.0496 31.1053 14.6021 31.6566 15.3778ZM30.1548 16.4934C29.7977 15.9909 29.4225 15.6221 29.029 15.3872C28.6379 15.1506 28.2456 15.0422 27.852 15.0621C27.4585 15.082 27.0827 15.2249 26.7247 15.4909C26.3666 15.7569 26.1175 16.0781 25.9774 16.4546C25.8373 16.8312 25.8157 17.247 25.9127 17.7022C26.0119 18.1556 26.2401 18.6336 26.5972 19.1362C26.9543 19.6387 27.3284 20.0083 27.7196 20.2449C28.113 20.4798 28.5065 20.5873 28.9 20.5675C29.2935 20.5476 29.6693 20.4046 30.0274 20.1387C30.3854 19.8727 30.6345 19.5514 30.7746 19.1749C30.9147 18.7984 30.9351 18.3834 30.8359 17.9299C30.7389 17.4748 30.5119 16.9959 30.1548 16.4934Z" fill="white"/>
<path d="M33.7473 18.9765L29.8547 11.1654L32.9084 9.57458C33.4929 9.27006 34.0444 9.1157 34.5627 9.11148C35.0823 9.1034 35.5462 9.2349 35.9542 9.50596C36.3634 9.77317 36.6967 10.1649 36.9539 10.681C37.2124 11.1997 37.3239 11.7037 37.2885 12.193C37.2518 12.6797 37.0724 13.1319 36.7505 13.5494C36.4311 13.9656 35.9741 14.3286 35.3795 14.6383L33.3349 15.7035L32.6735 14.3762L34.4535 13.4489C34.7659 13.2861 35.0039 13.1077 35.1674 12.9136C35.3309 12.7196 35.42 12.5098 35.4346 12.2844C35.4518 12.0577 35.3963 11.8159 35.2684 11.5591C35.1391 11.2998 34.9785 11.108 34.7865 10.9838C34.597 10.8583 34.3749 10.8043 34.1202 10.8217C33.8667 10.8353 33.5825 10.9241 33.2675 11.0881L32.164 11.663L35.3838 18.124L33.7473 18.9765ZM36.1558 13.2443L39.8509 15.7968L38.0444 16.7379L34.3908 14.1637L36.1558 13.2443Z" fill="white"/>
<path d="M40.4071 15.2597L37.7639 6.94229L43.3447 5.0883L43.8055 6.53815L39.9758 7.81042L40.6056 9.7923L44.1482 8.61542L44.6089 10.0653L41.0663 11.2422L41.6974 13.2281L45.5433 11.9505L46.0041 13.4003L40.4071 15.2597Z" fill="white"/>
<ellipse cx="56.794" cy="6.58383" rx="3.66412" ry="3.74634" fill="white"/>
<ellipse cx="61.3742" cy="115.228" rx="3.66412" ry="3.74634" fill="white"/>
</svg>
